<svg id="Layer_1" data-name="Layer 1" xmlns="http://www.w3.org/2000/svg" viewBox="0 0 1846 2050"><defs><style>.cls-1{fill:none;stroke:#000;stroke-miterlimit:10;stroke-width:5px;}</style></defs><title>Circular</title><polyline class="cls-1" points="255.09 550.74 258.68 554.03 262.87 557.32 267.06 561.21 271.25 564.8 275.73 568.09 282.01 571.08 287.7 573.17 293.68 574.67 300.56 576.47 307.14 577.96 319.4 579.46 330.77 580.65 336.75 580.65 346.02 582.45 350.51 582.45 359.18 583.94 367.56 583.94 377.13 585.14 386.7 586.63 392.98 588.73 398.07 592.32 402.25 598.3 406.44 602.79 416.91 599.8 426.78 598.6 438.15 597.4 448.02 596.51 458.19 595.01 467.76 593.81 477.03 592.32 485.7 590.82 493.78 589.03 502.45 587.83 509.93 586.93 515.62 585.74 518.9 584.24 521.9 580.95 523.99 576.76 526.38 571.08 528.77 564.5 532.37 556.13 535.36 550.74 539.54 547.45 544.33 542.97 548.82 539.38 552.11 534.89 554.8 530.1 557.49 524.72 559.88 519.49 562.57 515.45 566.16 510.36 571.25 503.48 576.03 497.8 580.22 491.82 583.51 487.33 587.4 482.25 591.29 477.46 595.48 473.27 599.96 468.49 604.45 463.4 609.24 458.92 613.72 454.43 607.14 446.95 601.16 440.37 595.18 433.19 589.49 426.31 584.41 419.73 578.43 412.86 571.85 406.87 565.87 402.98 559.58 398.8 549.12 393.41 541.94 389.82 534.76 386.83 526.08 382.64 517.71 380.85 506.04 379.06 497.97 376.96 489.89 374.27 482.71 371.28 474.94 368.29 467.76 365.89 458.79 362.9 451.9 360.51 445.32 358.42 438.15 356.02 432.76 353.93 426.18 351.54 421.7 348.55 417.81 344.36 415.41 339.87 412.12 334.49 409.13 330 405.25 324.02 401.06 318.94 396.27 314.15 390.59 309.66 383.41 306.37 375.63 306.37 369.05 306.37 361.57 306.37 353.2 306.37 347.52 306.37 340.34 306.37 333.76 306.37 325.68 306.37 316.71 306.37 311.03 306.37 304.15 310.26 296.97 314.75 290.09 318.94 282.91 322.82 276.03 327.01 269.75 331.2 262.57 335.39 255.09 340.17 247.32 344.66 240.74 348.55 234.46 351.24"/></svg>