<svg id="Layer_1" data-name="Layer 1" xmlns="http://www.w3.org/2000/svg" viewBox="0 0 1846 2050"><defs><style>.cls-1{fill:none;stroke:#000;stroke-miterlimit:10;stroke-width:5px;}</style></defs><title>Mall</title><polyline class="cls-1" points="348.48 792.58 351.01 795.11 353.84 797.79 356.38 800.48 359.36 803.6 363.08 807.03 366.66 810.16 370.08 813.29 373.81 817.46 377.53 821.78 382.15 825.8 386.18 829.23 389.75 832.06 392.88 834.75 396.31 837.43 399.44 839.51 403.01 841.75 407.33 844.43 412.25 847.26 416.57 849.64 420.44 851.73 424.92 853.97 428.94 855.9 432.66 857.54 436.54 859.33 440.56 861.27 445.92 863.8 450.54 865.74 454.42 867.97 459.33 870.36 463.51 872.29 467.68 873.93 471.4 875.72 475.57 877.8 478.85 879.29 481.98 880.93 485.26 882.87 488.54 884.96 490.92 887.19 493.6 889.13 496.88 890.92 500.75 893 504.33 894.64 507.46 896.43 510.74 898.07 514.31 900.3 517.74 901.94 521.02 904.03 524.45 906.41 528.17 908.8 531.3 910.73 534.88 913.12 537.71 914.91 541.28 917.14 545.16 919.38 548.73 921.91 552.16 924 555.88 926.38 559.31 928.61 563.04 931 566.61 933.08 570.19 935.91 573.47 937.85 576.3 939.64 579.58 942.02 581.96 944.11 584.64 945.9 587.77 947.98 590 949.92 593.28 952.45 596.26 954.84 599.09 957.37 601.78 959.61 604.61 962.44 607.29 964.52 611.91 967.5 614.29 969.29 617.57 970.93 621.14 972.27 625.32 973.16 629.79 974.21 633.81 974.95 637.53 976 641.56 977.19 646.03 977.93 650.05 979.12 654.82 980.91 660.03 982.55 664.95 984.19 669.57 985.98 674.19 987.77 678.81 989.4 683.28 990.89 687.75 992.38 692.81 994.32 697.28 996.26 701.6 998.05 704.88 999.54"/></svg>