<svg id="Layer_1" data-name="Layer 1" xmlns="http://www.w3.org/2000/svg" viewBox="0 0 1846 2050"><defs><style>.cls-1{fill:none;stroke:#000;stroke-miterlimit:10;stroke-width:5px;}</style></defs><title>Mcloed</title><polyline class="cls-1" points="348.99 792.49 353.81 791.94 358.82 790.63 363.84 789.11 367.54 787.91 372.44 786.28 377.46 785.41 383.56 783.77 389.66 782.36 395.98 780.72 403.06 779.09 409.71 777.78 417.88 776.69 422.02 776.03 427.58 775.16 434.77 773.97 440.43 773.97 446.64 773.42 452.64 773.42 458.74 772.88 465.71 772.33 472.14 771.79 478.02 771.13 485 770.26 490.88 769.17 497.09 768.19 503.3 767.1 507.44 766.34 515.5 765.03 520.52 764.16 525.75 763.18 531.52 761.98 536.75 760.13 544.05 755.01 548.3 751.08 552 748.47 555.27 745.96 558.11 744.33 561.59 742.15 564.86 739.97 567.8 738.01 570.53 736.16 574.34 733.11 577.06 730.38 579.02 728.64 581.1 726.68 583.27 724.83 585.67 722.97 587.96 720.9 589.7 719.27 591.55 717.63 593.3 715.89 595.26 714.04 597.66 711.86 599.84 710.12 601.58 708.7 604.09 706.74 606.37 705 608.77 703.14 611.17 701.51 613.57 699.55 615.85 697.48 618.03 695.19 620.76 693.01 623.15 691.49 626.1 689.52 631.29 686.01 635.73 682.1 640.17 678.18 643.3 676.35 645.77 674.17 647.64 672.43 650.17 669.63 652.04 667.36 653.11 664.15 654.45 660.14 656.05 654.94 657.79 649.73 659.52 644.92 661.8 638.91 663.53 633.7 665.4 628.62 667.4 623.01 668.61 618.74 669.41 615.93 671.01 612.19 672.75 607.92 675.29 602.44 676.22 598.57 677.96 593.89 679.56 589.35 681.3 584.41 683.17 579.2 684.5 574.79 686.11 570.12 687.71 565.44 689.04 560.63 689.04 558.76"/></svg>