<svg id="Layer_1" data-name="Layer 1" xmlns="http://www.w3.org/2000/svg" viewBox="0 0 1846 2050"><defs><style>.cls-1{fill:none;stroke:#000;stroke-miterlimit:10;stroke-width:8px;}</style></defs><title>Nisbet</title><polyline class="cls-1" points="401.61 665.96 405.77 667.94 409.32 670.31 414.07 673.27 417.43 675.85 422.18 679.01 426.53 681.58 430.48 684.74 434.24 687.71 438.59 690.87 442.74 693.64 446.3 696.21 450.65 699.38 455.79 703.33 459.16 706.89 463.31 709.86 467.66 713.02 472.4 716.78 476.95 721.13 480.91 724.69 484.47 727.85 487.43 730.23 490.6 733.19 493.76 736.36 497.72 739.52 501.67 741.69 504.24 743.47 507.6 745.25 511.36 747.03 514.72 749.41 517.69 751.19"/></svg>